<?xml version="1.0" standalone="no"?>
<!DOCTYPE svg PUBLIC "-//W3C//DTD SVG 20010904//EN"
 "http://www.w3.org/TR/2001/REC-SVG-20010904/DTD/svg10.dtd">
<svg version="1.0" xmlns="http://www.w3.org/2000/svg"
 width="860.000000pt" height="860.000000pt" viewBox="0 0 860.000000 860.000000"
 preserveAspectRatio="xMidYMid meet">
<metadata>
Created by potrace 1.11, written by Peter Selinger 2001-2013
</metadata>
<g transform="translate(0.000000,860.000000) scale(0.100000,-0.100000)"
fill="#000000" stroke="none">
<path d="M7515 7699 c-49 -24 -50 -25 -51 -489 -2 -443 -5 -547 -28 -740 -17
-156 -54 -297 -102 -398 l-45 -93 -67 -31 c-37 -17 -69 -32 -72 -33 -12 -4
-273 -118 -360 -158 -25 -11 -49 -21 -55 -23 -5 -1 -37 -15 -70 -30 -33 -15
-63 -27 -67 -26 -3 1 -12 -5 -18 -13 -7 -8 -19 -15 -26 -15 -8 0 -43 -13 -77
-30 -35 -16 -67 -30 -70 -30 -4 0 -44 -17 -89 -39 -46 -21 -328 -145 -628
-276 -639 -279 -611 -266 -675 -295 -27 -13 -68 -30 -90 -40 -22 -9 -62 -27
-90 -39 -27 -12 -66 -29 -85 -38 -19 -8 -55 -25 -80 -36 -25 -12 -47 -22 -50
-22 -3 -1 -21 -8 -40 -17 -54 -26 -145 -65 -210 -93 -33 -14 -83 -36 -112 -49
-123 -56 -264 -118 -273 -120 -5 -2 -35 -14 -65 -28 -109 -51 -195 -89 -200
-88 -3 0 -18 -6 -35 -14 -49 -25 -186 -86 -192 -86 -2 0 -29 -11 -60 -25 l-55
-26 -197 130 c-108 72 -201 135 -208 141 -7 5 -15 10 -18 10 -3 0 -18 8 -33
19 -15 10 -61 40 -102 66 -41 26 -100 64 -130 83 -30 20 -84 54 -120 77 -36
23 -92 59 -125 79 -169 106 -201 126 -212 136 -7 5 -15 10 -18 10 -3 0 -39 22
-80 50 -41 28 -77 50 -80 50 -3 0 -18 8 -33 19 -15 10 -52 34 -82 53 -191 120
-236 149 -247 158 -7 5 -17 10 -23 10 -5 0 -10 5 -10 10 0 6 -5 10 -10 10 -6
0 -43 21 -83 46 -40 26 -101 66 -137 88 -63 41 -149 80 -200 92 -99 22 -219 8
-302 -37 -41 -23 -128 -101 -128 -116 0 -3 -6 -14 -14 -22 -42 -47 -67 -212
-45 -295 4 -17 10 -44 13 -61 8 -51 16 -87 32 -160 9 -38 17 -79 19 -90 6 -32
14 -68 20 -95 3 -14 7 -36 10 -50 12 -61 15 -78 25 -120 5 -25 12 -56 14 -70
3 -14 7 -36 10 -50 14 -63 17 -77 22 -100 2 -14 7 -36 9 -50 3 -14 11 -56 20
-93 8 -37 17 -80 20 -95 3 -15 7 -38 10 -52 5 -23 7 -34 20 -93 3 -12 7 -33
10 -47 3 -14 7 -36 10 -50 10 -47 17 -85 21 -105 1 -11 5 -31 9 -45 3 -14 8
-38 11 -54 2 -16 7 -32 9 -36 3 -4 7 -22 9 -41 3 -19 8 -45 11 -59 13 -57 27
-127 31 -155 2 -16 6 -36 9 -44 3 -8 8 -28 11 -46 4 -28 1 -33 -35 -53 -22
-13 -42 -22 -43 -22 -5 2 -283 -114 -385 -161 -24 -10 -45 -19 -48 -19 -4 0
-27 -10 -53 -22 -26 -12 -49 -22 -52 -23 -3 -1 -31 -13 -63 -28 -32 -15 -59
-27 -61 -27 -2 0 -20 -7 -39 -15 l-35 -15 71 -67 c40 -38 74 -70 77 -73 15
-16 166 -142 226 -190 153 -120 387 -269 574 -364 41 -21 81 -44 88 -51 12
-11 25 -54 38 -125 3 -14 10 -42 15 -64 6 -21 8 -40 5 -43 -3 -3 -1 -13 3 -22
5 -9 12 -32 15 -51 3 -19 8 -46 11 -60 3 -14 10 -47 15 -75 6 -27 12 -60 15
-72 3 -13 7 -32 10 -44 2 -11 6 -28 9 -37 3 -9 7 -33 10 -52 2 -19 7 -46 10
-60 6 -27 14 -67 22 -115 3 -16 10 -47 15 -68 5 -20 8 -41 5 -45 -2 -4 -264
-7 -582 -7 -562 0 -579 -1 -608 -20 -61 -41 -56 -140 8 -167 49 -20 1308 -20
1353 1 52 23 63 78 39 191 -3 14 -10 48 -16 75 -5 28 -12 64 -15 80 -4 17 -8
40 -10 52 -2 11 -6 30 -9 41 -4 11 -9 33 -11 48 -2 16 -7 41 -10 57 -3 15 -7
37 -9 50 -2 12 -7 39 -11 60 -6 31 -3 44 14 67 11 16 21 34 21 40 0 5 5 10 10
10 6 0 9 3 8 7 -2 9 79 183 85 183 3 0 23 -7 46 -15 22 -8 41 -12 41 -9 0 2 8
0 17 -5 10 -5 32 -11 48 -14 17 -3 51 -10 78 -16 26 -6 64 -14 85 -17 20 -3
44 -7 52 -9 8 -2 37 -7 65 -11 27 -3 61 -8 75 -10 152 -20 484 -25 650 -10
142 13 141 13 265 31 21 3 64 12 105 20 14 3 36 7 50 10 52 10 66 13 110 25
25 7 56 14 69 17 13 2 31 8 40 12 9 5 19 9 24 10 4 0 33 8 65 18 31 9 59 17
62 18 7 0 90 31 165 60 67 26 98 38 105 40 31 8 354 169 358 177 2 5 7 8 12 8
20 0 322 191 411 261 60 47 61 46 74 -41 2 -19 6 -44 9 -55 9 -50 17 -98 21
-128 3 -17 7 -43 10 -57 3 -14 8 -45 11 -70 14 -111 -3 -91 465 -558 322 -322
448 -441 467 -444 15 -2 176 -3 359 -3 l332 1 29 27 c24 23 29 36 29 73 0 37
-5 49 -29 69 -16 14 -33 26 -36 26 -4 1 -145 2 -313 3 l-306 1 -396 396 c-219
218 -397 403 -398 410 0 8 -2 21 -4 29 -1 8 -6 35 -9 60 -4 25 -9 52 -11 60
-2 8 -7 33 -10 55 -3 23 -7 50 -9 60 -2 11 -7 40 -11 65 -4 25 -9 54 -11 65
-2 11 -6 38 -9 60 -3 22 -7 50 -10 63 -3 19 9 36 63 85 171 158 368 378 478
534 21 30 35 42 52 40 12 -1 22 -5 22 -9 0 -4 7 -8 15 -8 8 0 39 -9 68 -20
l55 -21 36 -107 c20 -59 39 -114 41 -122 24 -79 329 -981 338 -999 27 -54 33
-55 381 -56 176 0 339 3 360 8 87 18 105 132 28 174 -35 18 -55 20 -315 19
-153 -1 -283 1 -288 5 -7 4 -364 1062 -373 1104 -1 6 -4 15 -7 20 -4 6 -9 23
-13 39 -14 56 -35 74 -134 112 -53 21 -101 41 -105 45 -5 3 20 62 55 130 66
129 90 181 109 239 7 19 16 40 20 46 5 6 10 19 12 30 1 10 11 42 22 71 15 41
22 50 32 41 7 -6 13 -14 13 -18 0 -8 183 -318 200 -337 5 -7 10 -16 10 -20 0
-5 16 -32 35 -62 19 -29 35 -54 35 -56 0 -1 25 -42 55 -91 30 -49 64 -107 76
-129 12 -22 25 -42 29 -45 4 -3 10 -15 14 -27 4 -13 11 -23 16 -23 4 0 11 -11
14 -25 4 -14 11 -25 16 -25 6 0 10 -5 10 -11 0 -6 14 -31 30 -56 17 -24 37
-57 45 -74 9 -16 22 -29 30 -29 14 0 76 24 105 41 8 5 26 14 40 19 62 26 166
83 232 128 26 17 50 32 53 32 3 0 11 4 18 10 7 5 57 45 112 89 288 230 485
522 600 889 13 39 21 72 19 72 -3 0 0 8 5 18 5 9 12 33 15 52 3 19 8 52 11 74
4 21 9 48 11 60 23 109 23 403 0 546 -12 78 -18 109 -28 145 -5 22 -12 51 -14
64 -8 41 -46 151 -75 216 -27 61 -26 67 14 109 75 78 217 265 217 285 0 5 4
11 8 13 8 3 86 135 88 148 0 3 14 34 31 70 27 55 38 80 48 110 1 3 7 18 13 33
7 16 19 52 28 80 9 29 18 59 21 67 4 8 7 20 8 25 2 6 8 30 15 55 7 25 14 53
16 63 2 10 5 26 8 35 5 16 15 73 21 119 2 13 6 40 9 60 9 54 16 142 21 263 4
81 1 113 -11 141 -24 55 -79 73 -136 47 -43 -20 -55 -54 -58 -153 -3 -127 -6
-170 -25 -309 -7 -54 -13 -80 -39 -201 -11 -47 -59 -196 -84 -260 -56 -140
-203 -386 -286 -480 -20 -22 -36 -43 -36 -46 0 -4 -6 -9 -14 -12 -13 -5 -57
44 -99 110 -4 6 0 24 8 40 30 57 67 162 79 223 3 14 10 44 16 66 5 23 12 62
15 85 2 24 7 55 9 68 24 111 35 357 35 726 -1 521 -1 524 -51 559 -25 18 -72
20 -103 5z"/>
</g>
</svg>
